<?xml version="1.0" encoding="UTF-8" standalone="no"?>
<!-- Created with Inkscape (http://www.inkscape.org/) -->

<svg
   width="213.44579mm"
   height="87.381149mm"
   viewBox="0 0 213.44579 87.381149"
   version="1.1"
   id="svg1"
   xml:space="preserve"
   xmlns:inkscape="http://www.inkscape.org/namespaces/inkscape"
   xmlns:sodipodi="http://sodipodi.sourceforge.net/DTD/sodipodi-0.dtd"
   xmlns:xlink="http://www.w3.org/1999/xlink"
   xmlns="http://www.w3.org/2000/svg"
   xmlns:svg="http://www.w3.org/2000/svg"><sodipodi:namedview
     id="namedview1"
     pagecolor="#ffffff"
     bordercolor="#000000"
     borderopacity="0.25"
     inkscape:showpageshadow="2"
     inkscape:pageopacity="0.0"
     inkscape:pagecheckerboard="0"
     inkscape:deskcolor="#d1d1d1"
     inkscape:document-units="mm"><inkscape:page
       x="0"
       y="0"
       width="213.44579"
       height="87.381149"
       id="page2"
       margin="0"
       bleed="0" /></sodipodi:namedview><defs
     id="defs1"><linearGradient
       id="linearGradient7"
       inkscape:collect="always"><stop
         style="stop-color:#e39c78;stop-opacity:1;"
         offset="0"
         id="stop8" /><stop
         style="stop-color:#ff8c4d;stop-opacity:1;"
         offset="0.89830506"
         id="stop7" /></linearGradient><linearGradient
       id="linearGradient5"
       inkscape:collect="always"><stop
         style="stop-color:#ff8945;stop-opacity:1;"
         offset="0"
         id="stop5" /><stop
         style="stop-color:#e55400;stop-opacity:1;"
         offset="0.49152541"
         id="stop6" /></linearGradient><linearGradient
       inkscape:collect="always"
       xlink:href="#linearGradient5"
       id="linearGradient6"
       x1="10.108265"
       y1="224.01387"
       x2="95.856506"
       y2="224.01387"
       gradientUnits="userSpaceOnUse"
       gradientTransform="translate(37.968039,-147.12615)" /><linearGradient
       inkscape:collect="always"
       xlink:href="#linearGradient7"
       id="linearGradient8"
       x1="10.229399"
       y1="213.68204"
       x2="96.177658"
       y2="213.68204"
       gradientUnits="userSpaceOnUse"
       gradientTransform="translate(37.968039,-147.12615)" /></defs><g
     inkscape:label="Réteg 1"
     inkscape:groupmode="layer"
     id="layer1"
     transform="translate(-241.44416,-32.502613)"><g
       id="g8"
       inkscape:export-filename="icon.png"
       inkscape:export-xdpi="96"
       inkscape:export-ydpi="96"
       transform="translate(193.36788,9.6373057)"><path
         style="fill:url(#linearGradient8)"
         d="m 88.651034,110.11734 c -0.398857,-0.0652 -1.110867,-0.24555 -1.582243,-0.4009 C 86.366987,109.48516 74.39343,102.89966 54.039469,91.55019 50.472794,89.56139 49.2101,88.47248 48.533812,86.80227 l -0.295901,-0.73078 -0.03427,-19.24673 c -0.02149,-12.06623 0.01358,-19.50563 0.09402,-19.94072 0.268629,-1.45315 1.293713,-2.9796 2.608352,-3.8841 0.571411,-0.39314 4.71336,-2.66987 23.04335,-12.66639 4.786285,-2.61026 9.393256,-5.12841 10.237714,-5.59587 2.513915,-1.39162 3.699458,-1.73208 6.453014,-1.85316 1.758236,-0.0773 2.779613,0.0668 4.603626,0.64955 1.139515,0.36406 2.090991,0.84848 7.845283,3.99425 2.68322,1.46687 10.12966,5.53179 16.54763,9.03316 6.41797,3.50137 11.91522,6.53426 12.2161,6.73977 0.87624,0.59848 1.52308,1.52568 1.99875,2.86507 0.19775,0.5568 0.22113,2.35553 0.25592,19.68544 l 0.0383,19.07266 -0.31467,0.99089 c -0.37421,1.17843 -1.28889,2.60361 -2.10738,3.2836 -0.71001,0.58986 -1.26981,0.92638 -4.4395,2.6688 -2.60275,1.43077 -8.38674,4.64168 -18.72321,10.39398 -14.084157,7.83791 -13.246672,7.41074 -15.288438,7.79806 -1.175838,0.22305 -3.436012,0.25122 -4.621452,0.0576 z M 62.813163,86.83843 c 1.300849,-0.76843 1.312367,-3.5576 0.02439,-5.90511 -0.197698,-0.36033 -0.521066,-0.74544 -0.718595,-0.85579 -0.324348,-0.18121 -0.379901,-0.17989 -0.573404,0.0136 -0.19778,0.19778 -0.182832,0.30655 0.194325,1.41391 0.280624,0.82394 0.408588,1.45084 0.408588,2.0017 0,0.8378 -0.11557,1.17924 -0.566875,1.67473 -0.655396,0.71956 -2.343428,0.0829 -3.199761,-1.20683 -0.958745,-1.44397 -1.109554,-2.93328 -0.449346,-4.43751 0.550991,-1.25538 0.365007,-1.8823 -0.558406,-1.8823 -0.787082,0 -1.554584,1.36478 -1.554584,2.76439 0,2.66677 2.153396,5.72195 4.602869,6.53043 0.859624,0.28373 1.79593,0.24017 2.390802,-0.11123 z m -2.111825,-4.59928 c 0.07072,-0.18602 0.12859,-1.16694 0.12859,-2.17982 0,-2.02798 -0.119226,-2.5196 -0.726998,-2.99767 -0.435518,-0.34258 -0.687234,-0.35944 -1.009679,-0.0676 -0.213771,0.19346 -0.241126,0.44923 -0.241126,2.25455 0,2.17628 0.12424,2.72824 0.705795,3.13557 0.452565,0.31699 0.993869,0.24835 1.143418,-0.145 z"
         id="path1" /><path
         style="fill:url(#linearGradient6)"
         d="m 89.521749,110.12005 c -1.925239,-0.27147 -3.36928,-0.72429 -4.521859,-1.41795 -0.413756,-0.24901 -7.664708,-4.29181 -16.113227,-8.98399 -8.448518,-4.69218 -15.981842,-8.89669 -16.740719,-9.34336 -2.296103,-1.35145 -3.577015,-2.85719 -3.963457,-4.65912 -0.09144,-0.42639 -0.123541,-6.91566 -0.09739,-19.68886 0.03575,-17.46009 0.05753,-19.10245 0.26051,-19.64619 l 0.221496,-0.59334 -0.0914,0.52742 c -0.246713,1.42362 -0.03934,2.25955 0.784019,3.16044 0.860887,0.94195 2.015134,1.69519 6.375653,4.16062 6.165297,3.48585 28.300145,15.75919 29.588455,16.40622 1.701888,0.85474 2.879844,1.13785 4.759402,1.14389 1.835931,0.006 3.420352,-0.19743 4.696649,-0.60273 0.931896,-0.29594 3.51876,-1.65272 8.818339,-4.62514 6.53441,-3.665 12.38678,-6.86317 17.00912,-9.29504 8.40653,-4.42279 10.84159,-5.80388 11.69921,-6.63545 0.28731,-0.27857 0.70955,-0.90158 0.93833,-1.38446 0.52209,-1.10198 0.56413,-2.2397 0.11908,-3.22277 -0.15704,-0.34689 -0.2325,-0.59793 -0.16768,-0.55787 0.0648,0.0401 0.2552,0.41288 0.42306,0.82849 l 0.30521,0.75565 V 66.0367 85.62689 l -0.5812,1.17675 c -0.82023,1.66074 -1.68088,2.46336 -4.10847,3.83147 -1.04666,0.58986 -2.08101,1.15942 -2.29857,1.26569 -0.21756,0.10627 -1.37458,0.74417 -2.57115,1.41756 -1.19657,0.6734 -3.83694,2.14479 -5.86748,3.26977 -2.03055,1.12498 -6.3026,3.49796 -9.49346,5.2733 -14.472328,8.05214 -13.598294,7.60127 -15.533709,8.01309 -0.937292,0.19943 -3.166929,0.34168 -3.848766,0.24553 z M 62.70301,86.82561 c 0.698821,-0.4644 1.041364,-1.27859 1.041364,-2.4752 0,-1.18023 -0.245418,-2.09938 -0.889736,-3.33224 -0.501902,-0.96036 -0.986226,-1.35396 -1.388811,-1.12867 -0.310296,0.17365 -0.285348,0.51529 0.117872,1.61412 0.424619,1.15714 0.49246,2.56878 0.153537,3.19482 -0.456383,0.84301 -1.465859,0.86356 -2.585331,0.0526 -1.011687,-0.73286 -1.620159,-2.02168 -1.650131,-3.49519 -0.01537,-0.75561 0.04683,-1.06335 0.342988,-1.69707 0.198969,-0.42575 0.361761,-0.94492 0.361761,-1.15372 0,-0.48556 -0.420619,-0.90704 -0.905193,-0.90704 -1.334264,0 -2.042473,2.49585 -1.346951,4.74688 0.635415,2.0565 2.283881,3.92415 4.08591,4.62919 0.888769,0.34773 2.099686,0.32568 2.662721,-0.0485 z m -2.188363,-4.44975 c 0.212904,-0.23526 0.236447,-0.49918 0.213166,-2.38968 -0.02779,-2.257 -0.121336,-2.66542 -0.703925,-3.07348 -0.427093,-0.29915 -0.973339,-0.25997 -1.216547,0.0873 -0.162802,0.23243 -0.205257,0.68744 -0.205257,2.19988 0,2.12748 0.176639,2.76679 0.885867,3.20623 0.48212,0.29872 0.735768,0.29126 1.026696,-0.0302 z M 132.37675,44.04018 c -0.2831,-0.34446 -0.37827,-0.50763 -0.21147,-0.36259 0.2948,0.25634 0.86757,0.9889 0.7732,0.9889 -0.0258,0 -0.27862,-0.28184 -0.56173,-0.62631 z"
         id="path5" /><path
         style="fill:#702a00;fill-opacity:1"
         d="m 81.434733,97.81057 c -0.81759,-0.40469 -1.419966,-1.02291 -1.588613,-1.63039 -0.152684,-0.54998 -0.20963,-5.55052 -0.06743,-5.92108 0.123913,-0.32292 0.644388,-0.24847 1.452885,0.20782 1.220551,0.68884 1.23494,0.73858 1.235513,4.27101 3.55e-4,2.18861 -0.04379,3.0835 -0.157731,3.19744 -0.205916,0.20592 -0.206727,0.20581 -0.874624,-0.1248 z m 19.394317,-1.71995 c -0.10235,-0.12332 -0.15965,-1.11345 -0.17605,-3.04221 -0.021,-2.46664 0.006,-2.90515 0.19405,-3.19264 0.12352,-0.18852 0.74667,-0.59803 1.43477,-0.94289 0.66902,-0.3353 2.91456,-1.52185 4.99008,-2.63677 2.07551,-1.11493 3.86828,-2.02714 3.98393,-2.02714 0.41277,0 0.48325,0.48482 0.48325,3.32426 0,2.28832 -0.037,2.86696 -0.19782,3.09661 -0.1088,0.15533 -1.01364,0.71171 -2.01077,1.2364 -0.99712,0.52469 -3.14665,1.69241 -4.77674,2.59493 -3.00578,1.6642 -3.6471,1.92393 -3.9247,1.58945 z M 74.473989,93.9502 c -0.848075,-0.39408 -1.49385,-0.95229 -1.715574,-1.48295 -0.131976,-0.31586 -0.179851,-1.14721 -0.179851,-3.12307 0,-2.40745 0.02542,-2.72402 0.239985,-2.989 0.218898,-0.27033 0.281703,-0.2826 0.714785,-0.13967 0.731468,0.24141 1.54796,0.89881 1.784597,1.43687 0.167117,0.37999 0.225508,1.07048 0.267147,3.15914 0.02931,1.47007 0.01802,2.81338 -0.02509,2.98512 -0.114026,0.45432 -0.362993,0.48952 -1.086003,0.15356 z m 41.510341,-5.8908 -0.30369,-0.11523 0.04,-2.97741 0.04,-2.97741 0.52741,-0.47045 c 0.29008,-0.25874 1.9811,-1.2398 3.75783,-2.18013 1.77673,-0.94032 3.83724,-2.03432 4.57892,-2.43111 1.53023,-0.81864 1.82091,-0.83132 1.96082,-0.0855 0.0484,0.25823 0.0589,1.48607 0.0233,2.72853 -0.0673,2.34638 -0.1924,2.94532 -0.71029,3.4011 -0.13691,0.12049 -1.31695,0.7964 -2.6223,1.50202 -1.30535,0.70561 -3.22733,1.75576 -4.27107,2.33367 -2.35393,1.30334 -2.63084,1.41994 -3.02087,1.27196 z m -14.99135,-5.26085 c -0.30666,-0.33885 -0.3422,-1.13186 -0.0733,-1.63439 0.1248,-0.2332 0.72059,-0.62766 1.84295,-1.22016 2.7039,-1.42741 8.38594,-4.49216 10.22901,-5.51726 0.94275,-0.52436 2.30743,-1.26707 3.03263,-1.65047 0.72519,-0.38341 2.59422,-1.39271 4.15339,-2.24289 6.30422,-3.43758 6.0491,-3.3168 6.39661,-3.02839 0.2426,0.20134 0.26224,1.54938 0.0271,1.8565 -0.0883,0.11536 -0.6353,0.46542 -1.21545,0.7779 -0.58016,0.31248 -2.00418,1.08838 -3.16449,1.72422 -1.16031,0.63584 -3.71168,2.02985 -5.6697,3.0978 -1.95803,1.06796 -5.13134,2.79888 -7.05181,3.84648 -1.92047,1.04761 -4.38737,2.40317 -5.48199,3.01236 -2.29123,1.27514 -2.65102,1.3915 -3.02496,0.9783 z m 0.066,-5.24931 c -0.34425,-0.11762 -0.5189,-0.46841 -0.52322,-1.0509 -0.008,-1.10216 0.18816,-1.32867 1.9867,-2.29184 2.44119,-1.30732 8.31343,-4.49697 16.06998,-8.72877 3.80559,-2.07625 7.12381,-3.81337 7.37381,-3.86027 0.60251,-0.11303 0.93603,0.27244 0.93603,1.08185 0,1.02288 -0.0839,1.0973 -3.07898,2.7317 -1.53368,0.83692 -5.02559,2.74056 -7.75981,4.23031 -2.73421,1.48975 -5.43392,2.97038 -5.99934,3.29028 -0.56542,0.3199 -2.48172,1.36813 -4.25844,2.32941 -1.77673,0.96128 -3.29487,1.79917 -3.37365,1.86198 -0.25738,0.20522 -1.17063,0.47542 -1.37308,0.40625 z"
         id="path4" /><path
         style="fill:#000000;stroke-width:0.264583"
         d="M 59.562361,33.45933 104.64941,49.12115"
         id="path3" /></g><text
       xml:space="preserve"
       style="font-size:40.1688px;text-align:start;writing-mode:lr-tb;direction:ltr;text-anchor:start;fill:#e55400;fill-opacity:1;stroke:#e55400;stroke-width:1.847;stroke-dasharray:none;stroke-opacity:1"
       x="341.61935"
       y="88.157524"
       id="text8"><tspan
         sodipodi:role="line"
         id="tspan8"
         style="font-style:normal;font-variant:normal;font-weight:normal;font-stretch:normal;font-size:40.1688px;font-family:Arvo;-inkscape-font-specification:'Arvo, Normal';font-variant-ligatures:normal;font-variant-caps:normal;font-variant-numeric:normal;font-variant-east-asian:normal;baseline-shift:baseline;fill:#e55400;fill-opacity:1;stroke:#e55400;stroke-width:1.847;stroke-dasharray:none;stroke-opacity:1"
         x="341.61935"
         y="88.157524">QUBE</tspan></text></g></svg>
